name GIL02_fast3EmgEnv.mot
datacolumns 51
datarows 11
range 0.30925924 0.31851852
endheader
                time	   rect_fem_l_emgRec	   rect_fem_l_emgEnv	   rect_fem_l_emgAve	   rect_fem_l_emgSDp	   rect_fem_l_emgSDm	   rect_fem_r_emgRec	   rect_fem_r_emgEnv	   rect_fem_r_emgAve	   rect_fem_r_emgSDp	   rect_fem_r_emgSDm	   med_hams_l_emgRec	   med_hams_l_emgEnv	   med_hams_l_emgAve	   med_hams_l_emgSDp	   med_hams_l_emgSDm	   med_hams_r_emgRec	   med_hams_r_emgEnv	   med_hams_r_emgAve	   med_hams_r_emgSDp	   med_hams_r_emgSDm	   lat_hams_l_emgRec	   lat_hams_l_emgEnv	   lat_hams_l_emgAve	   lat_hams_l_emgSDp	   lat_hams_l_emgSDm	   lat_hams_r_emgRec	   lat_hams_r_emgEnv	   lat_hams_r_emgAve	   lat_hams_r_emgSDp	   lat_hams_r_emgSDm	    tib_ant_l_emgRec	    tib_ant_l_emgEnv	    tib_ant_l_emgAve	    tib_ant_l_emgSDp	    tib_ant_l_emgSDm	    tib_ant_r_emgRec	    tib_ant_r_emgEnv	    tib_ant_r_emgAve	    tib_ant_r_emgSDp	    tib_ant_r_emgSDm	    gas_sol_l_emgRec	    gas_sol_l_emgEnv	    gas_sol_l_emgAve	    gas_sol_l_emgSDp	    gas_sol_l_emgSDm	    gas_sol_r_emgRec	    gas_sol_r_emgEnv	    gas_sol_r_emgAve	    gas_sol_r_emgSDp	    gas_sol_r_emgSDm	
          0.30925924	          0.00065472	          0.05367007	          0.05365289	          0.06446018	          0.04284559	          0.01430206	          0.11646605	          0.21332286	          0.33775420	          0.08889153	          0.02212372	          0.17611372	          0.33403584	          0.48880641	          0.17926528	          0.02601790	          0.15218417	          0.28257069	          0.51231213	          0.05282925	          0.03443249	          0.20727369	          0.18044238	          0.26339144	          0.09749331	          0.00702343	          0.15508607	          0.16862303	          0.27648165	          0.06076441	          0.32900191	          0.25923327	          0.34465113	          0.53123207	          0.15807019	          0.09882997	          0.16219350	          0.37865183	          0.67101854	          0.08628511	          0.02259894	          0.11476986	          0.12257930	          0.21904949	          0.02610911	          0.21827085	          0.73251862	          0.50001734	          0.69922088	          0.30081381	
          0.31018516	          0.01960097	          0.05411627	          0.05533271	          0.06654744	          0.04411798	          0.00203162	          0.11781855	          0.21543176	          0.34043716	          0.09042637	          0.04367156	          0.17881481	          0.33551812	          0.48989935	          0.18113689	          0.01669759	          0.15197542	          0.28252620	          0.50979160	          0.05526079	          0.03948180	          0.20764606	          0.18312444	          0.26740889	          0.09883998	          0.03837926	          0.15675487	          0.17197195	          0.28039122	          0.06355268	          0.09764337	          0.25678432	          0.34466049	          0.53140540	          0.15791558	          0.11565902	          0.15531252	          0.37500146	          0.66649142	          0.08351150	          0.00281959	          0.11877174	          0.12395347	          0.22166216	          0.02624478	          0.29410153	          0.73325760	          0.50418085	          0.70303750	          0.30532420	
          0.31111109	          0.02399142	          0.05458065	          0.05705243	          0.06868919	          0.04541568	          0.04805887	          0.11913711	          0.21753056	          0.34310211	          0.09195901	          0.06974985	          0.18154281	          0.33696330	          0.49094453	          0.18298206	          0.01901388	          0.15187364	          0.28248531	          0.50726859	          0.05770202	          0.06930954	          0.20799585	          0.18584904	          0.27146098	          0.10023710	          0.03972644	          0.15848516	          0.17536373	          0.28431991	          0.06640756	          0.13157647	          0.25428684	          0.34470677	          0.53161654	          0.15779701	          0.11798421	          0.14865780	          0.37149987	          0.66200277	          0.08099696	          0.00416548	          0.12280342	          0.12530664	          0.22423887	          0.02637440	          0.17291465	          0.73386213	          0.50831664	          0.70681430	          0.30981897	
          0.31203702	          0.01025729	          0.05506604	          0.05881223	          0.07088560	          0.04673887	          0.06655038	          0.12042043	          0.21961932	          0.34574966	          0.09348898	          0.09579962	          0.18429446	          0.33837068	          0.49194151	          0.18479985	          0.04789113	          0.15188132	          0.28244805	          0.50474417	          0.06015193	          0.08177163	          0.20832917	          0.18861623	          0.27554708	          0.10168538	          0.05179258	          0.16027767	          0.17879793	          0.28826785	          0.06932801	          0.24014402	          0.25174161	          0.34478965	          0.53186528	          0.15771402	          0.07586323	          0.14223755	          0.36814857	          0.65755513	          0.07874200	          0.01863412	          0.12686080	          0.12663817	          0.22677857	          0.02649778	          0.05488289	          0.73433314	          0.51242352	          0.71055044	          0.31429659	
          0.31296295	          0.01453907	          0.05557537	          0.06061226	          0.07313680	          0.04808772	          0.05934789	          0.12166724	          0.22169818	          0.34838057	          0.09501579	          0.12372791	          0.18706634	          0.33973980	          0.49289009	          0.18658951	          0.00048195	          0.15200063	          0.28241453	          0.50221945	          0.06260960	          0.04569191	          0.20865228	          0.19142610	          0.27966667	          0.10318553	          0.06380489	          0.16213296	          0.18227394	          0.29223506	          0.07231282	          0.19596160	          0.24914983	          0.34490860	          0.53215109	          0.15766610	          0.01325015	          0.13605979	          0.36494899	          0.65315092	          0.07674706	          0.07549628	          0.13093976	          0.12794745	          0.22928011	          0.02661479	          0.07677300	          0.73467175	          0.51650041	          0.71424514	          0.31875569	
          0.31388885	          0.03279326	          0.05611165	          0.06245257	          0.07544283	          0.04946231	          0.03864564	          0.12287635	          0.22376716	          0.35099539	          0.09653893	          0.20641363	          0.18985490	          0.34107012	          0.49379000	          0.18835023	          0.05631057	          0.15223341	          0.28238481	          0.49969554	          0.06507409	          0.01498386	          0.20897161	          0.19427846	          0.28381890	          0.10473803	          0.05781600	          0.16405144	          0.18579100	          0.29622146	          0.07536054	          0.06681303	          0.24651312	          0.34506315	          0.53247370	          0.15765260	          0.01915564	          0.13013236	          0.36190245	          0.64879277	          0.07501212	          0.07978824	          0.13503625	          0.12923388	          0.23174246	          0.02672530	          0.02522014	          0.73487932	          0.52054620	          0.71789770	          0.32319470	
          0.31481481	          0.02989684	          0.05667798	          0.06433351	          0.07780407	          0.05086295	          0.01663140	          0.12404659	          0.22582664	          0.35359532	          0.09805796	          0.05123262	          0.19265641	          0.34236136	          0.49464111	          0.19008161	          0.05799229	          0.15258119	          0.28235897	          0.49717331	          0.06754464	          0.02032692	          0.20929369	          0.19717370	          0.28800366	          0.10634374	          0.07510739	          0.16603331	          0.18934885	          0.30022752	          0.07847018	          0.01156466	          0.24383352	          0.34525302	          0.53283285	          0.15767320	          0.00414447	          0.12446288	          0.35900962	          0.64448261	          0.07353663	          0.01061139	          0.13914625	          0.13049702	          0.23416481	          0.02682924	          0.15608523	          0.73495743	          0.52456009	          0.72150758	          0.32761261	
          0.31574070	          0.00343946	          0.05727750	          0.06625492	          0.08022029	          0.05228955	          0.00070062	          0.12517687	          0.22787668	          0.35618095	          0.09957241	          0.00322948	          0.19546704	          0.34361294	          0.49544322	          0.19178265	          0.05927552	          0.15304514	          0.28233704	          0.49465407	          0.07002001	          0.00981270	          0.20962513	          0.20011131	          0.29221970	          0.10800293	          0.07674264	          0.16807861	          0.19294636	          0.30425279	          0.08163993	          0.03301865	          0.24111351	          0.34547764	          0.53322807	          0.15772721	          0.02474577	          0.11905877	          0.35627189	          0.64022347	          0.07232031	          0.03938716	          0.14326578	          0.13173614	          0.23654587	          0.02692642	          0.34856642	          0.73490798	          0.52854073	          0.72507386	          0.33200760	
          0.31666666	          0.00201450	          0.05791344	          0.06821714	          0.08269187	          0.05374242	          0.01040171	          0.12626616	          0.22991765	          0.35875347	          0.10108182	          0.02383933	          0.19828278	          0.34482452	          0.49619614	          0.19345291	          0.03535411	          0.15362612	          0.28231904	          0.49213848	          0.07249960	          0.00580066	          0.20997264	          0.20309171	          0.29646702	          0.10971640	          0.01146682	          0.17018719	          0.19658327	          0.30829793	          0.08486861	          0.04693498	          0.23835594	          0.34573656	          0.53365895	          0.15781417	          0.03539421	          0.11392720	          0.35368952	          0.63601699	          0.07136205	          0.08427122	          0.14739096	          0.13295092	          0.23888502	          0.02701682	          0.46488306	          0.73473310	          0.53248751	          0.72859624	          0.33637878	
          0.31759256	          0.00529768	          0.05858906	          0.07022002	          0.08521857	          0.05522148	          0.00068671	          0.12731351	          0.23194973	          0.36131376	          0.10258570	          0.01237628	          0.20109952	          0.34599555	          0.49689962	          0.19509147	          0.00426949	          0.15432462	          0.28230503	          0.48962797	          0.07498209	          0.01959277	          0.21034296	          0.20611440	          0.30074438	          0.11148441	          0.01297014	          0.17235867	          0.20025848	          0.31236257	          0.08815438	          0.06080894	          0.23556407	          0.34602943	          0.53412530	          0.15793356	          0.07770441	          0.10907513	          0.35126361	          0.63186622	          0.07066101	          0.05078095	          0.15151800	          0.13414064	          0.24118103	          0.02710025	          0.50076019	          0.73443527	          0.53639919	          0.73207393	          0.34072444	
          0.31851852	          0.01415165	          0.05930768	          0.07226390	          0.08780078	          0.05672703	          0.01020260	          0.12831806	          0.23397347	          0.36386323	          0.10408372	          0.01015761	          0.20391301	          0.34712586	          0.49755369	          0.19669802	          0.00628671	          0.15514081	          0.28229490	          0.48712306	          0.07746674	          0.01198137	          0.21074286	          0.20917973	          0.30505177	          0.11330768	          0.03105636	          0.17459248	          0.20397158	          0.31644731	          0.09149585	          0.07254660	          0.23274155	          0.34635571	          0.53462659	          0.15808482	          0.12728811	          0.10450924	          0.34899414	          0.62777272	          0.07021555	          0.18592240	          0.15564322	          0.13530502	          0.24343331	          0.02717672	          0.47173506	          0.73401725	          0.54027510	          0.73550658	          0.34504361	
